<?xml version="1.0" encoding="UTF-8" standalone="no"?>
<!DOCTYPE svg PUBLIC "-//W3C//DTD SVG 1.1//EN" "http://www.w3.org/Graphics/SVG/1.1/DTD/svg11.dtd">
<svg width="100%" height="100%" viewBox="0 0 500 500" version="1.1" xmlns="http://www.w3.org/2000/svg" xmlns:xlink="http://www.w3.org/1999/xlink" xml:space="preserve" xmlns:serif="http://www.serif.com/" style="fill-rule:evenodd;clip-rule:evenodd;stroke-linejoin:round;stroke-miterlimit:2;">
    <g transform="matrix(0.5,0,0,0.5,0,0)">
        <rect id="Artboard1" x="0" y="0" width="1000" height="1000" style="fill:none;"/>
        <g id="Artboard11" serif:id="Artboard1">
            <g>
                <g transform="matrix(2.67776,0,0,0.123529,-543.898,71.3426)">
                    <ellipse cx="390.767" cy="94.875" rx="50.406" ry="53.125" style="fill:rgb(108,108,108);"/>
                </g>
                <g transform="matrix(-1.04097,0.615766,0.509127,0.860692,862.166,-406.844)">
                    <path d="M441.173,228L370.901,242.974L356.141,501.8L583.053,569.728L434.209,417.808L441.173,228Z" style="fill:rgb(108,108,108);"/>
                </g>
                <g transform="matrix(-1.04097,0.615766,0.509127,0.860692,862.166,-406.844)">
                    <path d="M413.333,248.251L370.901,242.974L355.827,501.158L583.053,569.728L410.304,433.749L413.333,248.251Z" style="fill:rgb(173,173,173);"/>
                </g>
                <g transform="matrix(1,0,0,1,14,0)">
                    <g transform="matrix(1.04097,0.615766,-0.509127,0.860692,124.298,-406.844)">
                        <path d="M441.173,228L370.901,242.974L356.141,501.8L583.053,569.728L434.209,417.808L441.173,228Z" style="fill:rgb(108,108,108);"/>
                    </g>
                    <g transform="matrix(1.04097,0.615766,-0.509127,0.860692,124.298,-406.844)">
                        <path d="M412.514,274.075L367.337,306.396L355.827,501.158L583.053,569.728L410.304,433.749L412.514,274.075Z" style="fill:rgb(173,173,173);"/>
                    </g>
                </g>
                <g transform="matrix(1,0,0,1,3.41061e-13,-330.5)">
                    <rect x="363.577" y="332" width="272.845" height="82" style="fill:rgb(108,108,108);"/>
                </g>
                <g transform="matrix(0.425655,0,0,1,285.683,-568.5)">
                    <path d="M183,569.356L272.87,652L183,652L183,569.356ZM400.87,652L328.097,652L237.297,568.5L310.07,568.5L400.87,652ZM655.87,652L573.856,652L483.056,568.5L565.07,568.5L655.87,652ZM792.87,652L711.097,652L620.297,568.5L702.07,568.5L792.87,652ZM518.629,652L456.097,652L365.297,568.5L427.829,568.5L518.629,652ZM824,629.84L757.297,568.5L824,568.5L824,629.84Z" style="fill:rgb(255,222,0);"/>
                </g>
                <g transform="matrix(1.01456,0,0,1,-9.27866,0)">
                    <path d="M637.456,83.063C637.456,94.198 611.605,98.165 582.502,99.516C577.032,99.77 571.448,99.932 565.899,100.031C560.344,100.131 544.177,98.036 544.177,98.036L539.253,89.625L465.312,89.625L454.971,105.854C454.971,105.854 435.316,96.451 424.6,95.542C391.813,92.76 367.507,88.66 367.507,83.063L637.456,83.063Z" style="fill:rgb(108,108,108);fill-opacity:0.58;"/>
                </g>
            </g>
        </g>
        <g transform="matrix(1,0,0,1,0,-1100.28)">
            <g transform="matrix(2,-0,-0,2,-0,1100.28)">
            </g>
        </g>
    </g>
</svg>
