<?xml version="1.0" encoding="UTF-8" standalone="no"?>
<!DOCTYPE svg PUBLIC "-//W3C//DTD SVG 1.1//EN" "http://www.w3.org/Graphics/SVG/1.1/DTD/svg11.dtd">
<svg width="100%" height="100%" viewBox="0 0 500 500" version="1.1" xmlns="http://www.w3.org/2000/svg" xmlns:xlink="http://www.w3.org/1999/xlink" xml:space="preserve" xmlns:serif="http://www.serif.com/" style="fill-rule:evenodd;clip-rule:evenodd;stroke-linejoin:round;stroke-miterlimit:2;">
    <g transform="matrix(0.5,0,0,0.5,0,0)">
        <g>
            <rect x="183" y="327" width="641" height="325" style="fill:rgb(255,98,0);"/>
            <g transform="matrix(0.569572,0,0,0.569572,342.052,79.0352)">
                <circle cx="518.5" cy="432.5" r="163.5" style="fill:rgb(255,98,0);"/>
            </g>
            <g transform="matrix(1,0,0,8.80952,0,-4448.71)">
                <rect x="183" y="568.5" width="641" height="10.5" style="fill:rgb(108,108,108);"/>
            </g>
            <g transform="matrix(0.569572,0,0,0.569572,71.052,79.0352)">
                <circle cx="518.5" cy="432.5" r="163.5" style="fill:rgb(255,98,0);"/>
            </g>
            <path d="M183,569.356L272.87,652L183,652L183,569.356ZM400.87,652L328.097,652L237.297,568.5L310.07,568.5L400.87,652ZM655.87,652L573.856,652L483.056,568.5L565.07,568.5L655.87,652ZM792.87,652L711.097,652L620.297,568.5L702.07,568.5L792.87,652ZM518.629,652L456.097,652L365.297,568.5L427.829,568.5L518.629,652ZM824,629.84L757.297,568.5L824,568.5L824,629.84Z" style="fill:rgb(255,222,0);"/>
            <g transform="matrix(1,0,0,1,-28.453,-10.375)">
                <circle cx="393.75" cy="335.75" r="53.75" style="fill:rgb(108,108,108);"/>
            </g>
            <g transform="matrix(1,0,0,1,243.625,-10.375)">
                <circle cx="393.75" cy="335.75" r="53.75" style="fill:rgb(108,108,108);"/>
            </g>
        </g>
    </g>
</svg>
